<?xml version="1.0" standalone="no"?>
<!DOCTYPE svg PUBLIC "-//W3C//DTD SVG 20010904//EN"
 "http://www.w3.org/TR/2001/REC-SVG-20010904/DTD/svg10.dtd">
<svg version="1.0" xmlns="http://www.w3.org/2000/svg"
 width="128.000000pt" height="128.000000pt" viewBox="0 0 128.000000 128.000000"
 preserveAspectRatio="xMidYMid meet">

<g transform="translate(0.000000,128.000000) scale(0.100000,-0.100000)"
fill="#52FA7C" stroke="none">
<path d="M590 1130 c-30 -30 -26 -73 10 -103 l30 -26 0 -165 c0 -91 -3 -166
-6 -166 -3 0 -32 24 -65 52 -53 47 -59 56 -59 91 0 30 7 45 30 67 35 33 38 57
9 94 -35 44 -110 30 -120 -24 -6 -27 11 -69 31 -80 16 -8 20 -21 20 -58 0 -45
3 -50 75 -122 l76 -76 -3 -154 -3 -154 -132 144 c-132 144 -133 145 -133 193
0 40 5 52 27 71 51 44 23 126 -44 126 -30 0 -73 -42 -73 -70 0 -12 14 -35 30
-52 26 -26 30 -37 30 -84 l0 -55 150 -163 150 -164 0 -66 c0 -59 2 -66 20 -66
13 0 20 7 20 20 0 12 66 101 150 205 l150 184 0 54 c0 48 4 59 30 85 17 17 30
40 30 52 0 28 -43 70 -73 70 -67 0 -95 -82 -44 -126 22 -19 27 -31 27 -72 0
-47 -3 -52 -126 -203 -69 -84 -129 -158 -135 -164 -5 -5 -9 50 -9 147 l0 156
75 92 c74 91 75 93 75 150 0 51 3 60 25 74 34 22 36 87 3 110 -34 24 -73 20
-97 -10 -29 -36 -26 -60 9 -96 25 -24 30 -38 30 -75 0 -41 -6 -53 -57 -116
l-58 -70 -3 207 -2 208 25 24 c49 45 20 124 -45 124 -17 0 -39 -9 -50 -20z"/>
</g>
</svg>
